<svg version="1.1" id="Layer_1" xmlns="http://www.w3.org/2000/svg" xmlns:xlink="http://www.w3.org/1999/xlink" x="0px" y="0px"
	 width="100%" viewBox="0 0 399 502" enable-background="new 0 0 399 502" xml:space="preserve">
<path fill="#1E2C3E" opacity="1.000000" stroke="none" 
	d="
M1.000000,197.000000 
	C1.000000,131.333359 1.000000,66.166702 1.000000,1.000044 
	C133.999939,1.000029 266.999878,1.000029 399.999878,1.000015 
	C399.999908,168.333221 399.999908,335.666443 399.999939,502.999756 
	C267.000153,502.999817 134.000290,502.999817 1.000223,502.999908 
	C1.000000,401.166656 1.000000,299.333344 1.000000,197.000000 
M76.627342,239.159042 
	C64.684952,247.630997 52.766201,256.019836 43.028854,267.252075 
	C23.169653,290.160065 11.050298,316.519073 9.298284,346.691010 
	C6.644097,392.399506 22.313454,431.194458 57.766487,460.741974 
	C92.104668,489.360321 132.053085,498.982697 175.246246,488.415680 
	C221.428955,477.117279 260.977997,452.553284 295.815277,420.499481 
	C322.939575,395.542419 344.413147,366.223145 360.725586,333.202484 
	C374.750244,304.812836 384.278839,274.900146 388.892578,243.570618 
	C394.306641,206.806671 392.912567,170.218491 384.877289,133.881973 
	C378.292664,104.105637 368.618958,75.772202 346.917908,53.216499 
	C311.121216,16.010027 267.619568,2.548590 217.260757,13.354419 
	C185.345703,20.202646 159.495041,37.491295 139.628922,63.501041 
	C124.943474,82.727974 115.902138,104.487633 113.359970,128.401596 
	C111.944710,141.714813 113.072845,155.322632 113.392494,168.789673 
	C113.760742,184.303909 112.755379,199.441162 104.044762,212.997223 
	C97.154472,223.720352 87.615730,231.684006 76.627342,239.159042 
z"/>
<path fill="#ECEDED" opacity="1.000000" stroke="none" 
	d="
M76.924789,238.958832 
	C87.615730,231.684006 97.154472,223.720352 104.044762,212.997223 
	C112.755379,199.441162 113.760742,184.303909 113.392494,168.789673 
	C113.072845,155.322632 111.944710,141.714813 113.359970,128.401596 
	C115.902138,104.487633 124.943474,82.727974 139.628922,63.501041 
	C159.495041,37.491295 185.345703,20.202646 217.260757,13.354419 
	C267.619568,2.548590 311.121216,16.010027 346.917908,53.216499 
	C368.618958,75.772202 378.292664,104.105637 384.877289,133.881973 
	C392.912567,170.218491 394.306641,206.806671 388.892578,243.570618 
	C384.278839,274.900146 374.750244,304.812836 360.725586,333.202484 
	C344.413147,366.223145 322.939575,395.542419 295.815277,420.499481 
	C260.977997,452.553284 221.428955,477.117279 175.246246,488.415680 
	C132.053085,498.982697 92.104668,489.360321 57.766487,460.741974 
	C22.313454,431.194458 6.644097,392.399506 9.298284,346.691010 
	C11.050298,316.519073 23.169653,290.160065 43.028854,267.252075 
	C52.766201,256.019836 64.684952,247.630997 76.924789,238.958832 
M182.547226,51.005764 
	C158.238327,68.228394 142.484329,91.108658 136.027298,120.129082 
	C177.073135,131.595963 202.660309,157.320969 208.921646,199.019958 
	C214.719650,237.633179 200.007538,269.556000 167.482819,290.505890 
	C129.916534,314.703186 92.073349,310.181702 55.967712,284.428558 
	C55.561832,284.809052 54.878380,285.290833 54.395531,285.925262 
	C32.420605,314.799744 24.711786,347.238495 32.784630,382.474121 
	C41.226738,419.321472 63.508312,445.895264 97.971436,461.537201 
	C122.286888,472.573334 147.857285,474.703339 173.573700,467.446136 
	C201.331985,459.612732 226.799103,446.657440 250.495728,430.165985 
	C296.924713,397.854065 330.693390,355.332550 351.508575,302.930725 
	C372.657867,249.687805 377.266266,194.710831 364.294769,138.745514 
	C360.783630,123.596802 356.979645,107.969475 349.953430,94.285309 
	C329.572510,54.591675 296.308167,32.980656 251.400436,30.782907 
	C226.540771,29.566296 203.676437,36.359837 182.547226,51.005764 
M178.701691,250.130920 
	C207.058502,201.138397 173.876358,148.971527 133.122849,141.755478 
	C133.122849,143.768311 133.079086,145.744095 133.130096,147.717453 
	C133.422501,159.031326 134.279785,170.361786 133.922043,181.654205 
	C133.333908,200.218964 128.712509,217.863037 115.769592,231.752823 
	C107.216331,240.931778 97.178947,248.765167 87.524605,256.865570 
	C82.385391,261.177643 76.647636,264.776367 71.063545,268.780579 
	C80.939003,277.737885 98.022858,284.467590 111.837372,284.927002 
	C140.314636,285.874023 162.358322,274.222137 178.701691,250.130920 
z"/>
<path fill="#1E2C3E" opacity="1.000000" stroke="none" 
	d="
M182.840363,50.797688 
	C203.676437,36.359837 226.540771,29.566296 251.400436,30.782907 
	C296.308167,32.980656 329.572510,54.591675 349.953430,94.285309 
	C356.979645,107.969475 360.783630,123.596802 364.294769,138.745514 
	C377.266266,194.710831 372.657867,249.687805 351.508575,302.930725 
	C330.693390,355.332550 296.924713,397.854065 250.495728,430.165985 
	C226.799103,446.657440 201.331985,459.612732 173.573700,467.446136 
	C147.857285,474.703339 122.286888,472.573334 97.971436,461.537201 
	C63.508312,445.895264 41.226738,419.321472 32.784630,382.474121 
	C24.711786,347.238495 32.420605,314.799744 54.395531,285.925262 
	C54.878380,285.290833 55.561832,284.809052 55.967712,284.428558 
	C92.073349,310.181702 129.916534,314.703186 167.482819,290.505890 
	C200.007538,269.556000 214.719650,237.633179 208.921646,199.019958 
	C202.660309,157.320969 177.073135,131.595963 136.027298,120.129082 
	C142.484329,91.108658 158.238327,68.228394 182.840363,50.797688 
z"/>
<path fill="#1F2D3F" opacity="1.000000" stroke="none" 
	d="
M178.492447,250.430511 
	C162.358322,274.222137 140.314636,285.874023 111.837372,284.927002 
	C98.022858,284.467590 80.939003,277.737885 71.063545,268.780579 
	C76.647636,264.776367 82.385391,261.177643 87.524605,256.865570 
	C97.178947,248.765167 107.216331,240.931778 115.769592,231.752823 
	C128.712509,217.863037 133.333908,200.218964 133.922043,181.654205 
	C134.279785,170.361786 133.422501,159.031326 133.130096,147.717453 
	C133.079086,145.744095 133.122849,143.768311 133.122849,141.755478 
	C173.876358,148.971527 207.058502,201.138397 178.492447,250.430511 
z"/>
</svg>